<svg class="icon" style="width: 1em;height: 1em;vertical-align: middle;fill: currentColor;overflow: hidden;" viewBox="0 0 1024 1024" version="1.1" xmlns="http://www.w3.org/2000/svg"><path d="M989.867 0A34.133 34.133 0 0 1 1024 34.133v955.734A34.133 34.133 0 0 1 989.867 1024H921.6c5.692-34.133 2.842-76.8-8.533-128C896 819.2 869.11 791.125 844.8 776.533c-16.213-9.728-44.655-18.261-85.333-25.6-79.642-28.441-122.309-48.358-128-59.733-8.534-17.067-17.067-28.442-17.067-51.2 0-15.172 2.842-35.08 8.533-59.733 16.359-11.025 27.734-22.409 34.134-34.134s12.083-31.641 17.066-59.733c18.193-10.197 29.568-21.572 34.134-34.133 4.565-12.561 4.565-35.311 0-68.267H691.2l17.067-51.2v-51.2c0-94.26-76.408-170.667-170.667-170.667h-51.2l-2.935 0.026c-92.903 1.57-167.732 77.363-167.732 170.641v51.2L332.8 384h-17.067l-0.486 3.618c-4.07 31.01-3.908 52.557 0.486 64.649 4.566 12.56 15.94 23.936 34.134 34.133 4.983 28.092 10.666 48.009 17.066 59.733 6.4 11.725 17.775 23.109 34.134 34.134 5.691 24.652 8.533 44.56 8.533 59.733 0 22.758-8.533 34.133-17.067 51.2-5.691 11.375-48.358 31.292-128 59.733-40.678 7.339-69.12 15.872-85.333 25.6C154.889 791.125 128 819.2 110.933 896c-11.375 51.2-14.225 93.867-8.533 128H34.133A34.133 34.133 0 0 1 0 989.867V34.133A34.133 34.133 0 0 1 34.133 0h955.734zM512 716.8l51.2 51.2-17.067 34.133 42.667 153.6-2.842 2.475c-24.66 21.12-49.305 31.659-73.958 31.659-25.6 0-51.2-11.375-76.8-34.134l42.667-153.6L460.8 768l51.2-51.2z" fill="#CFCFCF"></path></svg>