<svg class="icon" style="width: 5em;height: 5em;vertical-align: middle;fill: currentColor;overflow: hidden;" viewBox="0 0 1024 1024" version="1.1" xmlns="http://www.w3.org/2000/svg" p-id="24668"><path d="M275.825778 210.090667l27.164444-2.104889a2698.752 2698.752 0 0 1 413.980445-0.142222l32 2.446222a212.053333 212.053333 0 0 1 195.043555 192.568889l0.483556 5.603555a1912.462222 1912.462222 0 0 1-0.483556 346.368 206.023111 206.023111 0 0 1-189.411555 186.481778l-36.323556 2.787556a2704.497778 2704.497778 0 0 1-414.862222-0.113778l-34.844445-2.673778a205.226667 205.226667 0 0 1-188.586666-185.656889 1903.132444 1903.132444 0 0 1-0.625778-344.746667l0.625778-7.253333a213.105778 213.105778 0 0 1 195.84-193.564444z" fill="#FF753B" p-id="24669"></path><path d="M772.551111 65.706667a71.992889 71.992889 0 0 1 8.874667 101.432889l-92.558222 110.307555a71.992889 71.992889 0 1 1-110.307556-92.586667l92.558222-110.307555a71.992889 71.992889 0 0 1 101.432889-8.874667zM267.434667 65.706667a71.992889 71.992889 0 0 1 101.432889 8.846222L461.425778 184.888889a71.992889 71.992889 0 1 1-110.307556 92.586667L258.56 167.139556a71.992889 71.992889 0 0 1 8.874667-101.461334z" fill="#FFBF1A" p-id="24670"></path><path d="M452.551111 286.321778a71.992889 71.992889 0 0 1-101.432889-8.874667l-57.656889-68.721778 9.528889-0.739555a2698.752 2698.752 0 0 1 168.305778-7.708445 71.964444 71.964444 0 0 1-18.744889 86.044445zM716.970667 207.843556l28.444444 2.190222-56.547555 67.413333a71.992889 71.992889 0 0 1-120.376889-76.828444c49.550222 1.024 99.043556 3.441778 148.48 7.224889z" fill="#F25215" p-id="24671"></path><path d="M651.946667 637.468444l-70.656 51.683556-54.641778 27.847111a73.130667 73.130667 0 0 1-106.24-61.155555l-4.408889-79.843556 4.096-74.24a73.130667 73.130667 0 0 1 109.084444-59.591111l52.110223 29.525333 68.352 46.08a73.130667 73.130667 0 0 1 2.275555 119.694222z" fill="#FFFFFF" p-id="24672"></path></svg>