<svg class="icon" style="width: 5em;height: 5em;vertical-align: middle;fill: currentColor;overflow: hidden;" viewBox="0 0 1024 1024" version="1.1" xmlns="http://www.w3.org/2000/svg" p-id="24991"><path d="M512 512m-512 0a512 512 0 1 0 1024 0 512 512 0 1 0-1024 0Z" fill="#FF8689" p-id="24992"></path><path d="M803.3 433.4c0-69.7-22.1-75.4-52-65.9-10.5 3.3-21.8 8.3-34.1 15L650.3 424v-47.2c0-22.9-16.3-41.4-39.5-41.4H282.2c-23.2 0-43.9 18.5-43.9 41.4V656c0 22.9 20.7 41.4 43.9 41.4h328.7c23.2 0 39.5-18.5 39.5-41.4v-59.4l66.9 41.6c26.3 11.1 25 10.4 35.5 14.1h0.1c29.6 7.4 50.5 5.6 50.5-65.1l-0.1-153.8zM615.1 600.9h-0.1v49c0 7.5-6.3 11.4-13.8 11.4l-313.7-0.1c-7.6 0-13.9-6.1-13.9-13.5v-49.9c0.1-41.9 0.5-9.3 0-47.8V385.2c0-7.5 6.2-13.5 13.9-13.5l316.4 0.1c6.4 1.7 11.1 3.7 11.1 11.2v0.8h0.1v217.1z m140.4 12.2c-4.1 0-9-1.8-14.2-5.3l-90.9-60.6v-73.6l91.2-60.2c5.2-3.7 10-5.6 14.1-5.6 11.4 0 12.7 17.4 12.7 24.9v157.1c-0.1 6.9-1.4 23.3-12.9 23.3z m-377.3-207c-31 0-56.1 24.7-56.1 55.2 0 30.5 25.1 55.2 56.1 55.2s56.1-24.7 56.1-55.2c0-30.5-25.1-55.2-56.1-55.2z m0.2 82.6c-15.4 0-27.9-12.3-27.9-27.5s12.5-27.5 27.9-27.5c15.4 0 27.9 12.3 27.9 27.5 0.1 15.2-12.5 27.5-27.9 27.5z" fill="#FFFFFF" p-id="24993"></path></svg>