<svg class="icon" style="width: 5em;height: 5em;vertical-align: middle;fill: currentColor;overflow: hidden;" viewBox="0 0 1024 1024" version="1.1" xmlns="http://www.w3.org/2000/svg" p-id="29040"><path d="M682.666667 842.666667H85.333333A32 32 0 0 1 53.333333 810.666667V213.333333A32 32 0 0 1 85.333333 181.333333h597.333334a32 32 0 0 1 32 32v597.333334a32 32 0 0 1-32 32z m-565.333334-64h533.333334v-533.333334h-533.333334z" fill="#42D8B5" p-id="29041"></path><path d="M213.333333 842.666667A32 32 0 0 1 181.333333 810.666667V213.333333a32 32 0 0 1 64 0v597.333334a32 32 0 0 1-32 32zM938.666667 725.333333a31.573333 31.573333 0 0 1-18.56-5.973333l-256-181.12a32 32 0 0 1 0-52.053333l256-181.333334a32.213333 32.213333 0 0 1 33.28-2.133333 31.573333 31.573333 0 0 1 17.28 28.373333v362.666667a32 32 0 0 1-17.28 28.373333A32.64 32.64 0 0 1 938.666667 725.333333z m-200.533334-213.333333l168.533334 119.253333V392.746667z" fill="#F86402" p-id="29042"></path><path d="M181.333333 213.333333v32h64V213.333333a32 32 0 0 0-64 0zM245.333333 810.666667v-32h-64V810.666667a32 32 0 0 0 64 0zM650.666667 512a32 32 0 0 0 13.44 26.026667l50.56 35.84v-123.733334l-50.56 35.84A32 32 0 0 0 650.666667 512z" fill="#425400" p-id="29043"></path></svg>