<svg class="icon" style="width: 5em;height: 5em;vertical-align: middle;fill: currentColor;overflow: hidden;" viewBox="0 0 1024 1024" version="1.1" xmlns="http://www.w3.org/2000/svg" p-id="34387"><path d="M512 512m-491.52 0a491.52 491.52 0 1 0 983.04 0 491.52 491.52 0 1 0-983.04 0Z" fill="#FF4936" p-id="34388"></path><path d="M714.24 337.92h-166.4l48.64-110.08-38.4-17.92-56.32 128h-7.68l-35.84-74.24-38.4 17.92 28.16 53.76h-135.68c-35.84 0-64 28.16-64 64v276.48c0 35.84 28.16 64 64 64h401.92c35.84 0 64-28.16 64-64V401.92c-2.56-35.84-30.72-64-64-64z" fill="#FFFFFF" p-id="34389"></path></svg>