<svg class="icon" style="width: 5em;height: 5em;vertical-align: middle;fill: currentColor;overflow: hidden;" viewBox="0 0 1024 1024" version="1.1" xmlns="http://www.w3.org/2000/svg" p-id="36090"><path d="M744.171804 414.999782c-53.44012 0-96.776114 43.560098-96.776114 97.000218 0 53.664224 43.335994 97.000218 96.776114 97.000218s96.776114-43.335994 96.776113-97.000218c0-53.44012-43.335994-97.000218-96.776113-97.000218M511.774873 647.396713c-53.44012 0-96.776114 43.335994-96.776114 96.776114s43.335994 96.776114 96.776114 96.776114 96.776114-43.335994 96.776113-96.776114c0-53.44012-43.335994-96.776114-96.776113-96.776114m-38.6206-135.396713c0 21.330818 17.289782 38.396495 38.6206 38.396495 21.555945 0 38.844703-17.064654 38.844703-38.396495 0-21.106714-17.289782-38.396495-38.844703-38.396495-21.330818 0-38.620599 17.289782-38.6206 38.396495m38.6206-328.723813c-53.44012 0-96.776114 43.110867-96.776114 96.550986s43.335994 96.776114 96.776114 96.776114 96.776114-43.335994 96.776113-96.776114-43.335994-96.550986-96.776113-96.550986M279.377942 414.999782c-53.44012 0-96.776114 43.560098-96.776114 97.000218 0 53.664224 43.335994 97.000218 96.776114 97.000218s96.776114-43.335994 96.776114-97.000218c0-53.44012-43.335994-97.000218-96.776114-97.000218m482.982106 465.243093H864.748996c18.636452 0 33.905204 17.064654 33.905204 38.395472 0 21.330818-15.268752 38.620599-33.905204 38.620599H525.921058c-1.347694 0-2.918469-0.224104-4.266164-0.449231-3.143597 0-6.287193 0.449231-9.654894 0.449231-245.868757 0-445.258946-199.390189-445.258946-445.258946S266.13022 66.741054 512 66.741054s445.258946 199.390189 445.258946 445.258946c0 153.134703-77.241198 288.082184-194.898898 368.242875z" fill="#eb002a" p-id="36091"></path></svg>