<svg class="icon" style="width: 5em;height: 5em;vertical-align: middle;fill: currentColor;overflow: hidden;" viewBox="0 0 1024 1024" version="1.1" xmlns="http://www.w3.org/2000/svg" p-id="7552"><path d="M156.19 496.12l32.73-29.46c26.18-23.56 52.35-47.12 78.53-70.68l94.84-85.36c27.22-24.5 54.44-49.01 81.67-73.51 13-11.7 25.98-23.44 39.01-35.11 1.02-0.91 2.05-1.81 3.1-2.68l-4.75 3.91c4.8-3.85 9.95-7.03 15.48-9.55l-5.61 2.52a70.472 70.472 0 0 1 17.9-5.15c-2.08 0.3-4.16 0.6-6.24 0.89 6.14-0.81 12.27-0.81 18.41 0-2.08-0.3-4.16-0.6-6.24-0.89 6.17 0.92 12.14 2.63 17.9 5.15l-5.61-2.52c5.53 2.52 10.67 5.7 15.48 9.55l-4.75-3.91c11.79 9.77 22.94 20.53 34.34 30.8 25.99 23.39 51.98 46.79 77.97 70.18 31.6 28.44 63.2 56.89 94.81 85.33 27.39 24.65 54.77 49.3 82.16 73.95 13.34 12.01 26.62 24.1 40.02 36.02l0.57 0.51c4.85 4.36 10.05 7.32 16.6 7.32 5.76 0 12.63-2.72 16.6-7.32 8.01-9.29 10.01-26.34 0-35.36l-36.02-32.42c-28.36-25.53-56.72-51.05-85.08-76.58l-99.69-89.73-79.53-71.58-21.9-19.71c-1.52-1.37-3.03-2.74-4.56-4.1-10.34-9.26-21.2-16.19-34.09-20.71-18.29-6.41-39.78-6.31-57.94 0.57-12.35 4.68-22.62 11.26-32.63 20.23-4.62 4.14-9.21 8.29-13.82 12.44-23.38 21.05-46.77 42.09-70.15 63.14-32.52 29.27-65.03 58.54-97.55 87.81-30.59 27.53-61.18 55.07-91.77 82.6-17.01 15.31-34.02 30.62-51.02 45.93l-2.36 2.12c-4.37 3.93-6.87 11.81-6.87 17.68 0 6.13 2.56 13.46 6.87 17.68 4.47 4.37 10.35 7.62 16.6 7.32 6.51-0.31 11.61-2.84 16.59-7.32zM760.85 529.26V781.28c0 10.9 0.06 21.8 0 32.7-0.01 1.94-0.12 3.85-0.33 5.78l0.84-6.65c-0.5 3.87-1.43 7.58-2.81 11.2l2.37-5.97a47.34 47.34 0 0 1-5.34 9.79c1.22-1.69 2.45-3.37 3.67-5.06a45.16 45.16 0 0 1-7.47 7.96l4.75-3.91c-2.85 2.3-5.9 4.19-9.19 5.69l5.61-2.52a41.243 41.243 0 0 1-10.51 3c2.08-0.3 4.16-0.6 6.24-0.89-5.45 0.69-11.1 0.35-16.59 0.35h-433.8c-5.7 0-11.41 0.02-17.11 0-1.92-0.01-3.82-0.11-5.73-0.35 2.08 0.3 4.16 0.6 6.24 0.89-3.63-0.53-7.12-1.52-10.51-3l5.61 2.52c-3.29-1.5-6.34-3.39-9.19-5.69l4.75 3.91a45.16 45.16 0 0 1-7.47-7.96c1.22 1.69 2.45 3.37 3.67 5.06a47.34 47.34 0 0 1-5.34-9.79l2.37 5.97a48.65 48.65 0 0 1-2.81-11.2l0.84 6.65c-0.45-3.99-0.33-8.02-0.33-12.03v-19.96-67.64-83.18-72.05c0-11.71 0.15-23.43 0-35.14v-0.5c0-6.41-2.62-13.14-6.87-17.68-4.07-4.34-10.75-7.6-16.6-7.32-12.72 0.61-23.47 10.98-23.47 25V778.53c0 11.69-0.03 23.37 0 35.06 0.01 6.46 0.75 13.1 2.43 19.31 3.25 12 9.79 23.89 18.76 32.06 12.46 11.37 27.38 17.75 43.9 17.79 7.47 0.01 14.94 0 22.41 0H735.66c2.4 0 4.79 0.01 7.19 0 16.78-0.04 32.51-6.73 44.84-18.79 13.11-12.82 20.1-31.77 20.13-50.54 0.01-3.99 0-7.98 0-11.98v-56.72-80.26-77.57-50.52-7.12c0-6.41-2.62-13.14-6.87-17.68-4.07-4.34-10.75-7.6-16.6-7.32-12.74 0.62-23.5 11-23.5 25.01zM398.83 739.14H616.04c2.95 0 5.9 0.01 8.84 0h0.38c3.23 0.13 6.25-0.59 9.04-2.15 2.91-1.01 5.43-2.73 7.55-5.17 2.29-2.26 3.91-4.95 4.85-8.05 1.47-2.98 2.14-6.19 2.02-9.63l-0.84-6.65c-1.12-4.24-3.13-7.91-6.04-11.03-4.59-4.49-10.24-7.32-16.6-7.32H408.03c-2.95 0-5.9-0.01-8.84 0h-0.38c-3.23-0.13-6.25 0.59-9.04 2.15-2.91 1.01-5.43 2.73-7.55 5.17-2.29 2.26-3.91 4.95-4.85 8.05-1.47 2.98-2.14 6.19-2.02 9.63l0.84 6.65c1.12 4.24 3.13 7.91 6.04 11.03 4.6 4.48 10.24 7.32 16.6 7.32z" fill="#858585" p-id="7553"></path></svg>