<svg class="icon" style="width: 5em;height: 5em;vertical-align: middle;fill: currentColor;overflow: hidden;" viewBox="0 0 1024 1024" version="1.1" xmlns="http://www.w3.org/2000/svg" p-id="2354"><path d="M702.976 333.824c0-104.96-85.504-190.464-190.464-190.464C408.064 143.36 322.56 228.864 322.56 333.824s85.504 190.464 190.464 190.464c104.448-0.512 189.952-85.504 189.952-190.464z m-189.952 118.272C447.488 452.096 394.24 398.848 394.24 333.824S447.488 215.04 513.024 215.04c65.536 0 118.784 53.248 118.784 118.784s-53.76 118.272-118.784 118.272zM298.496 496.64c-104.96 0-190.464 85.504-190.464 190.464s85.504 190.464 190.464 190.464c104.96 0 190.464-85.504 190.464-190.464S403.456 496.64 298.496 496.64z m0 308.736c-65.536 0-118.784-53.248-118.784-118.784S232.96 568.32 298.496 568.32s118.784 53.248 118.784 118.784-53.248 118.272-118.784 118.272zM739.84 496.64c-104.96 0-190.464 85.504-190.464 190.464s85.504 190.464 190.464 190.464 190.464-85.504 190.464-190.464S844.8 496.64 739.84 496.64z m0 308.736c-65.536 0-118.784-53.248-118.784-118.784s53.248-118.784 118.784-118.784 118.784 53.248 118.784 118.784-53.76 118.784-118.784 118.784z" fill="#858585" p-id="2355"></path></svg>