<svg class="icon" style="width: 5.29296875em;height: 5em;vertical-align: middle;fill: currentColor;overflow: hidden;" viewBox="0 0 1084 1024" version="1.1" xmlns="http://www.w3.org/2000/svg" p-id="9748"><path d="M896.436379 165.697547h-62.339862l54.569967-54.569966c23.430151-23.369919 23.430151-70.16999 0-93.53991-23.369919-23.369919-70.16999-23.369919-93.53991 0l-155.879772 148.170108H452.166984L296.22698 17.52744c-23.430151-23.369919-70.16999-23.369919-93.539909 0-23.369919 23.430151-23.430151 70.16999 0 93.539909l54.569966 54.569966H194.917175A192.98253 192.98253 0 0 0 0.007228 360.607494v420.899476c0 116.970061 85.709782 202.679842 194.909947 202.679843h693.749309a192.98253 192.98253 0 0 0 194.849714-194.849715V360.607494c7.830128-109.139933-77.939886-194.909946-187.079819-194.909947z m54.630199 615.809423a69.868831 69.868831 0 0 1-70.16999 70.16999H202.626839A69.868831 69.868831 0 0 1 132.517081 781.50697V368.37739A69.868831 69.868831 0 0 1 202.687071 298.2074h678.209517a69.868831 69.868831 0 0 1 70.16999 70.16999v413.189812zM343.027051 438.54738a69.868831 69.868831 0 0 0-70.230222 70.16999V578.88736a69.868831 69.868831 0 0 0 70.16999 70.16999A69.868831 69.868831 0 0 0 413.197041 578.88736V508.71737A69.868831 69.868831 0 0 0 342.966819 438.54738z m405.359684 0a69.868831 69.868831 0 0 0-70.230221 70.16999V578.88736a69.868831 69.868831 0 0 0 70.16999 70.16999A69.868831 69.868831 0 0 0 818.556725 578.88736V508.71737a69.868831 69.868831 0 0 0-70.16999-70.16999z" fill="#ff509b" p-id="9749" style="
"></path></svg>