<svg class="icon" style="width: 5.29296875em;height: 5em;vertical-align: middle;fill: currentColor;overflow: hidden;" viewBox="0 0 1084 1024" version="1.1" xmlns="http://www.w3.org/2000/svg" p-id="1372"><path d="M896.43834 165.698h-62.34l54.57-54.57c23.43-23.37 23.43-70.17 0-93.54-23.37-23.37-70.17-23.37-93.54 0l-155.88 148.17H452.17034l-155.94-148.23c-23.43-23.37-70.17-23.37-93.54 0-23.37 23.43-23.43 70.17 0 93.54l54.57 54.57h-62.34A192.983 192.983 0 0 0 0.00934 360.607v420.899c0 116.97 85.71 202.68 194.91 202.68h693.75a192.983 192.983 0 0 0 194.85-194.85v-428.73c7.83-109.14-77.94-194.91-187.08-194.91z m54.63 615.809a69.869 69.869 0 0 1-70.17 70.17h-678.27a69.869 69.869 0 0 1-70.109-70.17v-413.13a69.869 69.869 0 0 1 70.17-70.17h678.21a69.869 69.869 0 0 1 70.17 70.17v413.19z m-608.039-342.96a69.869 69.869 0 0 0-70.23 70.17v70.17a69.869 69.869 0 0 0 70.17 70.17 69.869 69.869 0 0 0 70.23-70.17v-70.17a69.869 69.869 0 0 0-70.23-70.17z m405.36 0a69.869 69.869 0 0 0-70.23 70.17v70.17a69.869 69.869 0 0 0 70.17 70.17 69.869 69.869 0 0 0 70.23-70.17v-70.17a69.869 69.869 0 0 0-70.17-70.17z" fill="#8a8a8a" p-id="1373"></path></svg>