<svg class="icon" style="width: 1em;height: 1em;vertical-align: middle;fill: currentColor;fill:#888;overflow: hidden;" viewBox="0 0 1024 1024" version="1.1" xmlns="http://www.w3.org/2000/svg"><path d="M377.971959 333.319481 690.656471 511.932462 377.971959 690.678472 377.971959 333.319481zM958.70846 243.88252l0 536.102954c0 98.730629-79.971379 178.744987-178.615027 178.744987L243.903497 958.730461c-98.642624 0-178.61298-80.013335-178.61298-178.744987L65.290517 243.88252c0-98.644671 79.969333-178.615027 178.61298-178.615027l536.190959 0C878.73708 65.267493 958.70846 145.236825 958.70846 243.88252zM869.401458 288.643979c0-74.080206-59.989279-134.069485-134.069485-134.069485L288.667004 154.574494c-74.082252 0-134.115534 59.989279-134.115534 134.069485L154.55147 735.309972c0 74.03825 60.033281 134.113487 134.115534 134.113487l446.664969 0c74.080206 0 134.069485-60.075237 134.069485-134.113487L869.401458 288.643979z"></path></svg>