<svg class="icon" style="width: 1em;height: 1em;vertical-align: middle;fill: currentColor;fill:#888;overflow: hidden;" viewBox="0 0 1024 1024" version="1.1" xmlns="http://www.w3.org/2000/svg"><path d="M1024 365.714286q0 14.857143-10.857143 25.714285l-292.571428 292.571429q-10.857143 10.857143-25.714286 10.857143t-25.714286-10.857143-10.857143-25.714286V512H530.285714q-56 0-100.285714 3.428571t-88 12.285715-76 24.285714-60.285714 39.714286-45.714286 57.714285-27.714286 79.142858-10 103.428571q0 31.428571 2.857143 70.285714 0 3.428571 1.428572 13.428572t1.428571 15.142857q0 8.571429-4.857143 14.285714t-13.428571 5.714286q-9.142857 0-16-9.714286-4-5.142857-7.428572-12.571428t-7.714285-17.142858-6-13.714285Q0 734.857143 0 640q0-113.714286 30.285714-190.285714 92.571429-230.285714 500-230.285715h128V73.142857q0-14.857143 10.857143-25.714286t25.714286-10.857142 25.714286 10.857142l292.571428 292.571429q10.857143 10.857143 10.857143 25.714286z"></path></svg>